PathFileType	4	(X/Y/Z)	/Users/itak/Documents/Research/Walk-IL/dataset/trc/00210_00009.trc
DataRate	CameraRate	NumFrames	NumMarkers	Units	OrigDataRate	OrigDataStartFrame	OrigNumFrames
100.000000	100.000000	4	53	mm	100.000000	159	637
Frame#	Time	RPSI			LPSI			L3			STRN			T10			C7			CLAV			RBAK			LBAK			LSHO			LUPA			LAEL			LAOL			LWTS			LWPS			LFRA			LIFD			LHPS			LHTS			RSHO			RUPA			RAEL			RAOL			RWTS			RWPS			RFRA			RIFD			RHTS			RHPS			RBHD			LFHD			RFHD			LBHD			LHIP			RHIP			RASI			LASI			LKNE			LTHI			LANK			LTIP			LTOE			LMT5			LHEE			RKNE			RTHI			RANK			RTIP			RTOE			RMT1			RMT5			RHEE			LMT1			
		X1	Y1	Z1	X2	Y2	Z2	X3	Y3	Z3	X4	Y4	Z4	X5	Y5	Z5	X6	Y6	Z6	X7	Y7	Z7	X8	Y8	Z8	X9	Y9	Z9	X10	Y10	Z10	X11	Y11	Z11	X12	Y12	Z12	X13	Y13	Z13	X14	Y14	Z14	X15	Y15	Z15	X16	Y16	Z16	X17	Y17	Z17	X18	Y18	Z18	X19	Y19	Z19	X20	Y20	Z20	X21	Y21	Z21	X22	Y22	Z22	X23	Y23	Z23	X24	Y24	Z24	X25	Y25	Z25	X26	Y26	Z26	X27	Y27	Z27	X28	Y28	Z28	X29	Y29	Z29	X30	Y30	Z30	X31	Y31	Z31	X32	Y32	Z32	X33	Y33	Z33	X34	Y34	Z34	X35	Y35	Z35	X36	Y36	Z36	X37	Y37	Z37	X38	Y38	Z38	X39	Y39	Z39	X40	Y40	Z40	X41	Y41	Z41	X42	Y42	Z42	X43	Y43	Z43	X44	Y44	Z44	X45	Y45	Z45	X46	Y46	Z46	X47	Y47	Z47	X48	Y48	Z48	X49	Y49	Z49	X50	Y50	Z50	X51	Y51	Z51	X52	Y52	Z52	X53	Y53	Z53	

160	1.59	-1296.517456054688	1055.108520507812	-166.3640747070312	-1294.417846679688	1064.252197265625	-286.5500183105469	-1286.732177734375	1144.876220703125	-240.7762298583984	-1021.91015625	1301.2939453125	-252.2025299072266	-1281.14111328125	1272.65185546875	-232.2405700683594	-1186.80712890625	1524.65673828125	-237.8882293701172	-1032.736083984375	1420.757690429688	-249.7017517089844	-1274.361572265625	1395.409545898438	-158.1613922119141	-1218.516479492188	1493.278442382812	-347.0474243164062	-1132.960571289062	1486.005737304688	-410.4111328125	-1188.060668945312	1375.66015625	-486.3528137207031	-1218.59130859375	1170.725708007812	-522.8267211914062	-1288.862426757812	1166.61474609375	-469.7630004882812	-1162.413818359375	925.3442993164062	-477.3662109375	-1197.078002929688	914.589599609375	-553.3470458984375	-1216.240356445312	1061.817138671875	-540.297607421875	-1181.83837890625	729.809326171875	-492.8107299804688	-1191.663940429688	825.0435180664062	-552.988037109375	-1144.443115234375	821.9620971679688	-503.4533996582031	-1120.557495117188	1474.558837890625	-74.13114166259766	-1140.925537109375	1412.890625	-4.729865074157715	-1177.429565429688	1133.335205078125	38.784423828125	-1223.11767578125	1131.305541992188	-44.86651229858398	-1069.971313476562	906.28759765625	-28.54904747009277	-1110.996826171875	896.27099609375	45.94888305664062	-1155.066528320312	1061.864868164062	46.70069122314453	-1070.711303710938	710.1138305664062	-32.66597366333008	-1039.736083984375	781.7770385742188	-20.82504653930664	-1080.515991210938	785.8377075195312	39.11295318603516	-1124.432861328125	1676.952270507812	-204.0777130126953	-912.7579956054688	1685.546020507812	-287.9646301269531	-919.258056640625	1688.835571289062	-188.0836791992188	-1070.855590820312	1671.632202148438	-333.6407775878906	-1189.569946289062	1004.808349609375	-425.6221618652344	-1206.2275390625	1001.917297363281	-57.02081680297852	-1103.941528320312	1042.6416015625	-92.51817321777344	-1089.883911132812	1034.39208984375	-372.2531127929688	-998.88818359375	547.2644653320312	-386.7874145507812	-1054.811279296875	681.3225708007812	-419.6967468261719	-1059.113037109375	60.09750366210938	-393.8521118164062	-1036.180053710938	316.2361450195312	-401.6650390625	-854.48583984375	93.13660430908203	-336.012939453125	-933.851318359375	67.74877166748047	-408.0448913574219	-1123.039184570312	67.40850830078125	-344.3883361816406	-1218.458618164062	508.2884521484375	-124.1979141235352	-1170.945678710938	771.6004638671875	-60.49592590332031	-1327.849853515625	39.14323425292969	-187.6320648193359	-1222.024169921875	393.4780883789062	-149.9156799316406	-1111.44921875	47.47779846191406	-199.8567810058594	-1161.433349609375	43.51206588745117	-250.2518615722656	-1222.494018554688	40.61659622192383	-145.3121337890625	-1381.345703125	39.59207153320312	-255.8594207763672	-919.772705078125	77.47180938720703	-294.8700256347656	
161	1.6	-1293.487426757812	1054.876831054688	-166.3876342773438	-1291.30126953125	1063.966552734375	-286.5593872070312	-1283.580810546875	1144.51708984375	-240.7794647216797	-1018.644470214844	1300.891967773438	-252.1630096435547	-1277.9306640625	1272.265991210938	-232.2027740478516	-1183.569458007812	1524.267944335938	-237.8663330078125	-1029.519287109375	1420.336669921875	-249.6689147949219	-1271.128784179688	1395.031127929688	-158.1326446533203	-1215.291870117188	1492.863891601562	-347.0103454589844	-1129.740844726562	1485.546264648438	-410.3873291015625	-1184.894775390625	1375.169921875	-486.242431640625	-1215.555419921875	1170.252319335938	-522.6251220703125	-1285.770141601562	1166.173461914062	-469.4787292480469	-1159.515502929688	924.8154907226562	-477.2381591796875	-1194.268676757812	914.0939331054688	-553.17578125	-1213.289306640625	1061.337036132812	-540.1005859375	-1179.262084960938	729.3116455078125	-492.6464538574219	-1188.947631835938	824.5285034179688	-552.7940673828125	-1141.761596679688	821.3560791015625	-503.3064270019531	-1117.327392578125	1474.13427734375	-74.10348510742188	-1137.710693359375	1412.499633789062	-4.703746318817139	-1174.36376953125	1133.000610351562	38.9346809387207	-1220.006225585938	1130.942749023438	-44.73814392089844	-1067.1044921875	905.78564453125	-28.15088653564453	-1108.143920898438	895.90771484375	46.33794403076172	-1152.041870117188	1061.537963867188	46.92378234863281	-1068.02587890625	709.6236572265625	-32.06265640258789	-1036.968994140625	781.2734985351562	-20.26180458068848	-1077.787841796875	785.4309692382812	39.64383316040039	-1121.219116210938	1676.493774414062	-203.9835662841797	-909.6272583007812	1685.304443359375	-288.1015014648438	-916.056396484375	1688.556884765625	-188.2133483886719	-1067.773315429688	1671.254272460938	-333.61279296875	-1186.474609375	1004.447998046875	-425.5730285644531	-1203.316040039062	1001.59814453125	-56.972900390625	-1101.017211914062	1042.260498046875	-92.42559814453125	-1086.650024414062	1033.987670898438	-372.3328857421875	-995.5275268554688	547.2866821289062	-386.6907958984375	-1051.71337890625	681.0948486328125	-419.8975830078125	-1045.621215820312	59.03668975830078	-393.1103820800781	-1028.1591796875	315.6734008789062	-401.4102172851562	-841.8934936523438	95.57262420654297	-334.1543273925781	-920.4004516601562	68.67320251464844	-406.5730590820312	-1110.011108398438	65.44600677490234	-344.0565185546875	-1217.04443359375	508.1059265136719	-124.1515884399414	-1168.615356445312	771.1978759765625	-60.51564407348633	-1327.836669921875	39.13249969482422	-187.6103363037109	-1221.020629882812	393.2861633300781	-149.8588409423828	-1111.458251953125	47.47113800048828	-199.8096923828125	-1161.408325195312	43.54085159301758	-250.2057342529297	-1222.51318359375	40.51773071289062	-145.2316589355469	-1381.3740234375	39.67727279663086	-255.8579406738281	-907.1574096679688	78.99774932861328	-293.3655090332031	
162	1.61	-1290.359130859375	1054.605834960938	-166.4620666503906	-1288.057983398438	1063.624267578125	-286.6201477050781	-1280.341064453125	1144.115844726562	-240.8411712646484	-1015.311828613281	1300.473022460938	-252.1449127197266	-1274.638671875	1271.835693359375	-232.2212524414062	-1180.274780273438	1523.848266601562	-237.8851318359375	-1026.22900390625	1419.906494140625	-249.6651763916016	-1267.841674804688	1394.613159179688	-158.156982421875	-1212.00146484375	1492.410400390625	-347.0211181640625	-1126.444580078125	1485.062744140625	-410.3988037109375	-1181.631103515625	1374.650756835938	-486.1780395507812	-1212.407836914062	1169.742553710938	-522.4702758789062	-1282.55078125	1165.68017578125	-469.234375	-1156.430786132812	924.2732543945312	-477.1531372070312	-1191.264404296875	913.5689697265625	-553.0413818359375	-1210.1845703125	1060.82177734375	-539.9418334960938	-1176.400512695312	728.7916259765625	-492.508056640625	-1185.998168945312	823.9896850585938	-552.6290893554688	-1138.815185546875	820.7686767578125	-503.2005310058594	-1114.045532226562	1473.687744140625	-74.11245727539062	-1134.46875	1412.089721679688	-4.705568313598633	-1171.219970703125	1132.638793945312	39.05030059814453	-1216.811157226562	1130.545288085938	-44.64973449707031	-1064.143798828125	905.2593994140625	-27.74895668029785	-1105.204223632812	895.524169921875	46.72409820556641	-1148.942993164062	1061.1865234375	47.11953735351562	-1065.255004882812	709.091552734375	-31.43745040893555	-1034.092407226562	780.7501831054688	-19.69006729125977	-1074.971313476562	785.0091552734375	40.19179916381836	-1117.972900390625	1676.011962890625	-203.9164581298828	-906.4671020507812	1685.066162109375	-288.2615661621094	-912.82470703125	1688.279174804688	-188.3651428222656	-1064.655029296875	1670.855224609375	-333.6181335449219	-1183.225708007812	1004.011962890625	-425.5480041503906	-1200.3173828125	1001.270935058594	-56.94116973876953	-1098.014282226562	1041.872924804688	-92.33895111083984	-1083.290161132812	1033.531127929688	-372.4073486328125	-992.2171630859375	547.1524047851562	-386.6504821777344	-1048.610107421875	680.7478637695312	-420.1038818359375	-1032.264892578125	58.07257080078125	-392.3235168457031	-1020.238525390625	315.0851745605469	-401.1582336425781	-829.4959106445312	98.09671783447266	-332.2373046875	-907.097900390625	69.68649291992188	-405.0353393554688	-1097.099243164062	63.57072448730469	-343.6921997070312	-1215.557250976562	507.9124450683594	-124.0951385498047	-1166.14306640625	770.8167114257812	-60.59883117675781	-1327.81640625	39.12189102172852	-187.5878601074219	-1219.963134765625	393.0960998535156	-149.80078125	-1111.460693359375	47.46525192260742	-199.7473907470703	-1161.38232421875	43.57308959960938	-250.1511688232422	-1222.537841796875	40.41091918945312	-145.1387634277344	-1381.39453125	39.7689323425293	-255.8379974365234	-894.7272338867188	80.62976837158203	-291.7879028320312	
163	1.62	-1287.131591796875	1054.295654296875	-166.5887908935547	-1284.686279296875	1063.227783203125	-286.7342834472656	-1277.013793945312	1143.670166015625	-240.9645385742188	-1011.912048339844	1300.036254882812	-252.1455841064453	-1271.264526367188	1271.359252929688	-232.2980194091797	-1176.923828125	1523.3974609375	-237.946533203125	-1022.867309570312	1419.466918945312	-249.6893157958984	-1264.501098632812	1394.155517578125	-158.2366790771484	-1208.642944335938	1491.916137695312	-347.0802001953125	-1123.072021484375	1484.55419921875	-410.4464416503906	-1178.26904296875	1374.10107421875	-486.1604614257812	-1209.145874023438	1169.1953125	-522.3648071289062	-1279.203002929688	1165.13330078125	-469.0323486328125	-1153.148071289062	923.72216796875	-477.1145324707031	-1188.059326171875	913.0136108398438	-552.947265625	-1206.925659179688	1060.270629882812	-539.825439453125	-1173.244018554688	728.2496948242188	-492.4013061523438	-1182.8125	823.4261474609375	-552.4994506835938	-1135.587768554688	820.1992797851562	-503.1341552734375	-1110.716430664062	1473.223999023438	-74.15996551513672	-1131.209716796875	1411.666748046875	-4.728934288024902	-1168.00048828125	1132.252075195312	39.13083267211914	-1213.537353515625	1130.115600585938	-44.59963989257812	-1061.086303710938	904.7147216796875	-27.34868431091309	-1102.172973632812	895.122802734375	47.10405731201172	-1145.7705078125	1060.813110351562	47.28701400756836	-1062.387573242188	708.5264892578125	-30.79884147644043	-1031.1025390625	780.212646484375	-19.11999702453613	-1072.057006835938	784.5761108398438	40.74848556518555	-1114.692138671875	1675.507934570312	-203.8782043457031	-903.278076171875	1684.828125	-288.4476013183594	-909.5578002929688	1688.00244140625	-188.542724609375	-1061.500366210938	1670.435424804688	-333.6578674316406	-1179.814819335938	1003.505493164062	-425.5473327636719	-1197.23291015625	1000.935485839844	-56.93022155761719	-1094.9296875	1041.473754882812	-92.26148223876953	-1079.812255859375	1033.02734375	-372.454345703125	-988.9462280273438	546.8634033203125	-386.657470703125	-1045.495849609375	680.2794189453125	-420.3201599121094	-1019.092224121094	57.2094612121582	-391.4963684082031	-1012.429077148438	314.4745483398438	-400.9015808105469	-817.3323974609375	100.6733932495117	-330.2828979492188	-893.9933471679688	70.77916717529297	-403.4466247558594	-1084.341430664062	61.79105377197266	-343.2897644042969	-1213.998657226562	507.7091064453125	-124.0394134521484	-1163.514892578125	770.4646606445312	-60.75601959228516	-1327.790771484375	39.11714172363281	-187.5687866210938	-1218.85888671875	392.9024353027344	-149.7455596923828	-1111.453002929688	47.4599609375	-199.6681976318359	-1161.35888671875	43.60906600952148	-250.0921020507812	-1222.565673828125	40.2984619140625	-145.0345611572266	-1381.406860351562	39.87043762207031	-255.7968444824219	-882.530517578125	82.33336639404297	-290.1615600585938	
